<svg xmlns="http://www.w3.org/2000/svg" version="1.1" xmlns:xlink="http://www.w3.org/1999/xlink" xmlns:svgjs="http://svgjs.dev/svgjs" width="100%" height="100%" viewBox="0 0 1000 600"><rect width="1000" height="600" x="0" y="0" fill="#eb6841"/><g><rect width="333.3333333333333" height="333.3333333333333" rx="13.333333333333334" ry="13.333333333333334" y="140.61438157832995" fill="#013dc4" transform="matrix(1.0558132365367057,0,0,1.0558132365367057,0.31559339149541366,-24.431394333163354)" x="123.74772644042969"/><path d="M150.74358568875138 379.2074817022042L150.74358568875138 379.2074817022042Q146.56152354199446 381.3740922119698 141.85040534052732 381.3740922119698L141.85040534052732 381.3740922119698Q136.05598188417738 380.6434909935605 130.6898419006881 378.47688048379484Q125.34889506266117 376.3102699740292 122.80438737095967 373.2115130821551L122.80438737095967 373.2115130821551Q121.343184934141 364.318332733931 120.43623169749492 356.88635482252573Q119.52927846084884 349.45437691112033 119.00022240613863 342.8285796545115Q118.44597320596603 336.20278239790264 118.2696211877293 330.13123434146644Q118.09326916949256 324.0596862850301 118.09326916949256 317.88736564674434L118.09326916949256 317.88736564674434Q118.09326916949256 309.7247865169296 118.2696211877293 300.65525415046886Q118.44597320596603 291.5857217840081 118.72309780605234 281.33211158081497Q119.00022240613863 271.1036945230842 119.17657442437537 259.3888818830724Q119.3529264426121 247.6992623885229 119.3529264426121 233.91861182059498L119.3529264426121 233.91861182059498Q121.72108211607686 233.91861182059498 126.43220031754399 235.27904167556412Q131.14331851901113 236.63947153053323 135.7788572840911 238.45337800382538Q140.38920290370862 240.26728447711753 144.01701585029295 242.15677038679686Q147.64482879687728 244.0714494419386 148.02272597881313 245.33110671505813L148.02272597881313 245.33110671505813Q146.20881950552098 250.42012209846112 144.84838965055184 258.5827012282758Q143.48795979558275 266.74528035809055 142.65658599532384 276.72176596119743Q141.85040534052732 286.6982515643042 141.49770130405386 297.7580424222939Q141.11980412211798 308.8178332802836 141.11980412211798 319.7012721200365L141.11980412211798 319.7012721200365Q141.11980412211798 327.8638512498512 141.29615614035473 334.3132964882234Q141.49770130405386 340.73754858113307 141.74963275867776 345.9273365463856Q142.02675735876406 351.0919313661758 142.58100655893668 355.52592496755665Q143.11006261364687 359.98511171439975 143.8406638320562 364.318332733931L143.8406638320562 364.318332733931Q148.9296792154592 348.9001277109478 155.00122727189546 333.48192268796447Q161.07277532833172 318.06371766498114 167.52222056670382 303.8295904787302Q173.94647265961353 289.59546329247917 180.2951453161361 277.2508220159076Q186.6438179726586 264.9313738847984 192.36266199262138 255.76106893648804Q198.08150601258416 246.61595713364008 202.61627219581453 241.2498171501508Q207.15103837904496 235.90887031212387 210.04825010721993 235.53097313018802L210.04825010721993 235.53097313018802Q212.03850859874882 235.90887031212387 214.305891690364 237.09294814885627Q216.5732747819792 238.25183284012624 218.58872641897048 239.88938729518168Q220.57898491049937 241.52694175023709 222.2165393655548 243.51720024176598Q223.82890067514782 245.50745873329487 224.7358539117939 247.52291037028616L224.7358539117939 247.52291037028616Q218.03447721879786 249.86587289828853 210.3253747073062 258.5827012282758Q202.61627219581453 267.2743364128007 194.8063971024733 279.5182051075228Q187.02171515459446 291.7620738022448 179.66531667957628 306.1977461521949Q172.33411135002052 320.6082253566826 166.438915311821 334.3888759246105Q160.5437192736215 348.19471963800083 156.36165712686457 360.16146373263655Q152.17959498010765 372.12820782727226 150.74358568875138 379.2074817022042ZM272.4516714175626 357.2642520044616L272.4516714175626 357.2642520044616Q276.98643760079295 365.04893395234046 276.98643760079295 372.30455984550906L276.98643760079295 372.30455984550906Q276.98643760079295 373.9421143005644 276.70931300070663 375.3025441555336Q276.43218840062036 376.6629740105027 276.0794843641469 378.12417644732136L276.0794843641469 378.12417644732136Q273.00592061773517 377.7462792653855 269.6300391257748 377.5699272471487Q266.27935077927674 377.393575228912 262.65153783269244 377.393575228912L262.65153783269244 377.393575228912Q258.29312366769875 377.393575228912 253.85913006631796 377.6706998289983Q249.42513646493717 377.9226312836222 243.98341704506066 378.47688048379484Q238.5416976251842 379.0311296839675 231.81512778672578 379.9380829206135Q225.11375109372977 380.84503615725964 216.2205707455057 382.28104544861594L216.2205707455057 382.28104544861594Q212.03850859874882 380.84503615725964 207.8816395974543 376.5622014286531Q203.69957745069735 372.30455984550906 200.07176450411305 366.33378437092233L200.07176450411305 366.33378437092233Q201.8856709774052 362.3280742424022 204.60653068734342 356.43287820420267Q207.3273903972817 350.53768216600315 210.955203343866 342.09797843610215Q214.5830162904503 333.6834678516635 219.04220303729352 322.34655239358756Q223.47619663867434 311.0096369355116 228.56521202207733 296.12048796723855L228.56521202207733 296.12048796723855Q231.81512778672578 286.32035438236835 234.18328346019052 278.88837647096307Q236.5262459881929 271.45639855955767 238.44092504333463 264.47789726647534Q240.3556040984763 257.499395973393 242.16951057176846 249.86587289828853Q243.98341704506066 242.25754296864642 246.1500275548263 232.28105736553957L246.1500275548263 232.28105736553957Q253.40565344799495 233.71706665689587 258.7466002860218 237.62200420356646Q264.1127402695111 241.52694175023709 269.00021048921496 248.7825676434057L269.00021048921496 248.7825676434057Q267.5642011978587 251.15072331687045 265.1960455243939 256.3908975730478Q262.8278898509292 261.6562649746876 259.6535535226679 269.18901546794245Q256.47921719440666 276.72176596119743 252.67505222958556 286.24477494598125Q248.87088726476452 295.76778393076506 244.68882511800763 306.65122277051796L244.68882511800763 306.65122277051796Q240.7083081349498 317.3583095920342 236.9041431701288 326.7805459949684Q233.0999782053077 336.20278239790264 230.10199389528321 343.8363054730072Q227.10400958525867 351.4446354026493 225.29010311196652 356.88635482252573Q223.47619663867434 362.3280742424022 223.47619663867434 365.04893395234046L223.47619663867434 365.04893395234046Q226.3734083668493 364.87258193410366 228.74156404031407 364.696229915867Q231.08452656831645 364.5198778976302 233.62903426001793 364.0664012793071Q236.17354195171941 363.61292466098416 239.17152626174396 362.95790287896193Q242.16951057176846 362.3280742424022 246.32637957306304 361.24476898751936L246.32637957306304 361.24476898751936Q249.95419251964734 360.33781575087323 253.05294941152147 359.7079871143135Q256.1265131579332 359.07815847775373 259.12449746795767 358.62468185943067Q262.1224817779822 358.1712052411077 265.2968181062435 357.89408064102133Q268.4711544345048 357.61695604093507 272.4516714175626 357.2642520044616ZM370.5789729935757 381.0213881754963L370.5789729935757 381.0213881754963Q370.22626895710226 381.1977401937331 369.84837177516636 381.1977401937331Q369.4956677386929 381.1977401937331 368.41236248381006 381.1977401937331L368.41236248381006 381.1977401937331Q365.8678547921086 381.1977401937331 362.51716644561054 380.3915595389366Q359.16647809911257 379.56018573867766 355.9921417708513 378.37610790194526Q352.81780544259 377.21722321067534 350.5504223509748 375.75602077385656Q348.2830392593596 374.2948183370379 347.728790059187 373.2115130821551L347.728790059187 373.2115130821551Q347.55243804095034 370.6670053904536 347.55243804095034 367.94614568051543Q347.55243804095034 365.22528597057715 347.55243804095034 362.70597142433803L347.55243804095034 362.70597142433803Q347.55243804095034 342.3751030361884 350.5504223509748 320.25552132020914Q353.52321351553695 298.1107464587674 360.4261353722321 272.3633517962037L360.4261353722321 272.3633517962037Q361.15673659064146 269.8188441045022 361.96291724543795 265.91390655783164Q362.7942910456969 262.03416215662344 363.70124428234294 257.499395973393L363.70124428234294 257.499395973393Q359.3428301173493 260.9256637562782 353.34686149730027 268.4584142495331Q347.37608602271354 275.9911647427881 340.75028876610475 286.24477494598125Q334.12449150949584 296.4983851491744 327.498694252887 308.7422538438964Q320.8728969962782 320.9861225386185 315.4311775764017 333.58269526981394Q309.9894581565252 346.1792680010095 306.10971375531705 358.5239092775811Q302.2047762086464 370.86855055415276 301.29782297200035 381.3740922119698L301.29782297200035 381.3740922119698Q292.580994642013 378.8295845202683 289.230306295515 376.3102699740292Q285.879617949017 373.7657622823277 285.879617949017 370.13794933574343L285.879617949017 370.13794933574343Q285.879617949017 366.8628404256326 287.86987644054585 360.8920649510459Q289.8601349320748 354.8960963309968 293.4879478786591 346.73351720118217Q297.1157608252434 338.57093807136744 302.38112822688316 328.493679886411Q307.64649562852287 318.441614846917 313.9951682850454 306.82757478875465L313.9951682850454 306.82757478875465Q321.250794178214 293.57598027553695 328.2292954712964 281.9871333628371Q335.20779676437866 270.37309330467485 341.9343666028371 260.9256637562782Q348.6357432958331 251.50342735334394 355.08518853420526 244.6005054966488Q361.50944062711494 237.72277678541604 367.8581132836374 234.09496383883172L367.8581132836374 234.09496383883172Q370.40262097533895 234.09496383883172 374.66026255848305 235.35462111195127Q378.9179041416271 236.63947153053323 382.99919370653447 238.45337800382538Q387.08048327144184 240.26728447711753 390.2548195997032 242.15677038679686Q393.4291559279644 244.0714494419386 393.80705310990027 245.33110671505813L393.80705310990027 245.33110671505813Q391.2625454181988 250.42012209846112 387.81108448985117 260.57295971980477Q384.35962356150367 270.72579734114834 380.83258319676895 283.5994946724302Q377.3055428320341 296.4983851491744 374.1312065037729 310.908864353662Q370.95687017551154 325.31934355814974 369.1429637022194 338.57093807136744L369.1429637022194 338.57093807136744Q373.29983270351397 328.59445246826056 378.84232470523995 317.8117862103571Q384.35962356150367 307.00392680699144 390.53194419978945 296.3976125673248Q396.70426483807523 285.7912983276582 403.1537100764474 275.8148127245513Q409.5779621693571 265.8383271214444 415.750282807643 257.5749754097802Q421.92260344592864 249.3368168435783 427.2635502839556 243.16449620529252Q432.62969026744497 236.99217556700668 436.78655926873944 234.09496383883172L436.78655926873944 234.09496383883172Q439.3310669604409 234.09496383883172 443.58870854358497 235.35462111195127Q447.846350126729 236.63947153053323 451.9276396916364 238.45337800382538Q456.00892925654375 240.26728447711753 459.1832655848051 242.15677038679686Q462.35760191306645 244.0714494419386 462.7354990950022 245.33110671505813L462.7354990950022 245.33110671505813Q456.9158824931899 255.68548950010086 452.5826614736586 270.54944532291154Q448.224247308665 285.41340114572233 445.22626299864044 301.7385594053517Q442.2282786886159 318.06371766498114 440.69149681541 334.1369444699866Q439.15471494220424 350.18497812952967 439.15471494220424 362.88232344257483L439.15471494220424 362.88232344257483Q439.15471494220424 367.0391924438693 439.15471494220424 371.5739586270997Q439.15471494220424 376.10872481033005 439.5074189786776 381.0213881754963L439.5074189786776 381.0213881754963Q436.9629112869761 381.0213881754963 433.4358709222414 380.3915595389366Q429.9088305575067 379.73653775691434 426.5329490655463 378.6532325020315Q423.18226071904826 377.5699272471487 420.46140100911 376.2094973921796Q417.7405412991718 374.84906753721054 416.657236044289 373.2115130821551L416.657236044289 373.2115130821551Q416.4808840260522 370.6670053904536 416.4808840260522 367.94614568051543Q416.4808840260522 365.22528597057715 416.4808840260522 362.70597142433803L416.4808840260522 362.70597142433803Q416.4808840260522 342.3751030361884 419.47886833607674 320.25552132020914Q422.4516595006389 298.1107464587674 429.35458135733404 272.3633517962037L429.35458135733404 272.3633517962037Q430.0851825757435 269.8188441045022 430.9921358123895 265.4604299395086Q431.8990890490355 261.1272089199773 432.80604228568166 256.3908975730478L432.80604228568166 256.3908975730478Q427.7170269022787 258.9354052647493 421.292774809369 266.1154517215308Q414.84332957099684 273.2703050328498 408.217532314388 283.52391523604297Q401.59173505777915 293.7775254392361 395.16748296486935 306.2733255885821Q388.7180377264973 318.7943188833905 383.5534429067071 331.7687887965218Q378.38884808691694 344.7432587096532 374.8366145767198 357.5161834590855Q371.309574211985 370.3143013539801 370.5789729935757 381.0213881754963Z " fill="#e2d3f4" transform="matrix(1.0558132365367057,0,0,1.0558132365367057,0.31559339149541366,-24.431394333163354)"/><path d="M573.6281233337668 380.0770490589325L573.6281233337668 380.0770490589325Q569.3738951988621 382.281046767377 564.5814815770118 382.281046767377L564.5814815770118 382.281046767377Q558.6870691009392 381.5378382377853 553.2283305904893 379.3338405293407Q547.7952199603703 377.1298428208962 545.2068040469644 373.97761354021395L545.2068040469644 373.97761354021395Q543.720386987781 364.930971783459 542.797783295874 357.3707470858876Q541.8751796039669 349.81052238831626 541.3369941170212 343.07038986132886Q540.7731807497446 336.33025733434147 540.5937855874295 330.15393817463064Q540.4143904251141 323.9776190149198 540.4143904251141 317.6987883338859L540.4143904251141 317.6987883338859Q540.4143904251141 309.39535510672283 540.5937855874295 300.1693181876526Q540.7731807497446 290.9432812685825 541.0550874333828 280.512733973967Q541.3369941170212 270.1078145596823 541.5163892793364 258.1908502058834Q541.6957844416517 246.2995137324152 541.6957844416517 232.2810631914947L541.6957844416517 232.2810631914947Q544.1048051927422 232.2810631914947 548.8972188145925 233.66496872935522Q553.6896324364429 235.04887426721575 558.405162417301 236.89408165102978Q563.0950645178283 238.73928903484384 566.7854792854564 240.6613800596501Q570.4758940530844 242.60909896478714 570.8603122580457 243.89049298132466L570.8603122580457 243.89049298132466Q569.0151048742316 249.06732480813625 567.6311993363711 257.3707580352994Q566.2472937985106 265.6741912624625 565.4015737475959 275.82283187343967Q564.5814815770118 285.97147248441684 564.2226912523813 297.2221119496163Q563.83827304742 308.4727514148158 563.83827304742 319.5439957177L563.83827304742 319.5439957177Q563.83827304742 327.84742894486317 564.0176682097353 334.4081663095352Q564.2226912523813 340.94327579387664 564.4789700556888 346.2226191420111Q564.760876739327 351.476334609815 565.3246901066036 355.9868415480271Q565.8628755935493 360.5229763665699 566.606084123141 364.930971783459L566.606084123141 364.930971783459Q571.7829159499527 349.2467090210397 577.9592351096635 333.5624462586204Q584.1355542693743 317.87818349620125 590.6962916340465 303.39843110932713Q597.2314011183879 288.91867872245314 603.689626961737 276.3610173603855Q610.1478528050861 263.8289838786485 615.9653816401665 254.50043543825535Q621.7829104752468 245.19751487819292 626.3959289347819 239.7387763677431Q631.0089473943169 234.30566573762397 633.9561536323533 233.92124753266273L633.9561536323533 233.92124753266273Q635.9807561784826 234.30566573762397 638.28726540825 235.51017611316925Q640.5937746380176 236.68905860838376 642.6440050644777 238.35487082988257Q644.668607610607 240.02068305138133 646.3344198321057 242.04528559751063Q647.9746041732737 244.0698881436399 648.8972078651808 246.12011857009995L648.8972078651808 246.12011857009995Q642.0801916972011 248.50351144085974 634.2380603159916 257.3707580352994Q626.3959289347819 266.21237674940824 618.4512860322493 278.667526590153Q610.5322710100473 291.12267643089774 603.0489299534682 305.8074518604177Q595.5912167772199 320.46659940960694 589.5942927798242 334.48504995052747Q583.5973687824287 348.5291283717787 579.343140647524 360.7023715288851Q575.0889125126195 372.87561468599165 573.6281233337668 380.0770490589325ZM623.6281178590608 355.9099579070348L623.6281178590608 355.9099579070348Q623.6281178590608 354.24414568553607 623.9100245426991 351.75824129345324Q624.1919312263374 349.2467090210397 624.9095118755984 345.0949924074581Q625.6527204051902 340.94327579387664 626.8572307807353 335.04886331780403Q628.0617411562806 329.15445084173143 629.9069485400946 320.85101761456826L629.9069485400946 320.85101761456826Q630.2657388647252 319.00581023075415 631.5727607615935 314.93097725816483Q632.854154778131 310.88177216590634 634.9812688455833 306.34563734736344Q637.1083829130356 301.83513040915136 640.1324727920642 297.5809022742468Q643.1821905514234 293.35230201967306 647.436418686328 291.3276994735437L647.436418686328 291.3276994735437Q650.5630200866796 292.0452801228048 655.7398519134912 295.0949978821641Q660.891055859972 298.14471564152336 664.5814706276001 303.50094263065023L664.5814706276001 303.50094263065023Q660.3528703730262 308.29335625250053 657.4825477759822 313.08576987435083Q654.6378530592689 317.87818349620125 652.3313438295013 323.05501532301275Q650.0248345997338 328.2318471498244 648.0771156945967 333.7674693012665Q646.1293967894597 339.3030914527086 643.7460039186999 345.37689909109645L643.7460039186999 345.37689909109645Q641.7214013725707 350.55373091790807 640.0555891510719 355.9868415480271Q638.3897769295731 361.44558005847693 638.2103817672578 365.49478515073554L638.2103817672578 365.49478515073554Q638.2103817672578 368.82640959373305 638.1078702459348 370.2103151315936Q638.0309866049425 371.5942206694541 637.1083829130356 371.5942206694541L637.1083829130356 371.5942206694541Q636.3651743834438 371.5942206694541 634.1355487946685 370.67161697754705Q631.931551086224 369.7490132856401 629.6250418564564 367.801294380503Q627.3185326266889 365.85357547536603 625.4733252428748 362.9063692373297Q623.6281178590608 359.9591629992934 623.6281178590608 355.9099579070348ZM658.8664533138427 275.82283187343967L658.8664533138427 275.82283187343967Q658.8664533138427 274.7208330192175 659.4302666811192 272.49120743044216L659.4302666811192 272.49120743044216Q658.5076629892121 271.5686037385351 657.8669659809434 269.7233963547211Q657.2006410923439 267.8781889709071 657.2006410923439 266.4173997920543L657.2006410923439 266.4173997920543Q657.2006410923439 264.75158757055556 657.6619429382974 261.88126497351146Q658.1232447842509 259.0365702567982 658.8664533138427 255.7049458138006Q659.6096618434344 252.37332137080304 660.7116606976567 248.785418124498Q661.813659551879 245.19751487819292 662.9412862864319 242.22468075982587L662.9412862864319 242.22468075982587Q665.1452839948765 242.22468075982587 668.3743969165512 243.42919113537116Q671.6035098382257 244.6337015109164 674.9351342812232 246.58142041605348Q678.24113084389 248.50351144085974 681.0089419196111 250.81002067062727Q683.7767529953321 253.11652990039482 685.2631700545156 255.1411324465241L685.2631700545156 255.1411324465241Q683.2385675083864 257.1913628729841 679.9069430653888 260.7792661192892Q676.5753186223913 264.36716936559424 673.4487172220397 268.3394908168606Q670.3221158216882 272.3118122681269 667.7336999082823 275.82283187343967Q665.1452839948765 279.33385147875254 664.4020754652848 280.7946406576053L664.4020754652848 280.7946406576053Q662.1980777568402 280.43585033297484 660.5322655353415 278.87254963279895Q658.8664533138427 277.28362105229246 658.8664533138427 275.82283187343967ZM696.8725998443456 278.77003811147597L696.8725998443456 278.77003811147597Q701.6906413465267 280.2564551706595 705.9192416011006 285.3307754761481Q710.1734697360051 290.40509578163676 712.1980722821344 296.4789034200246L712.1980722821344 296.4789034200246Q710.1734697360051 301.47634008452087 705.9192416011006 308.4727514148158Q701.6906413465267 315.4947906254414 697.4364132116222 322.7731086393745Q693.1821850767176 330.0770545336384 689.7736769927277 336.6121640179798Q686.3651689087379 343.17290138265184 685.8013555414614 347.4015016372257L685.8013555414614 347.4015016372257Q688.7741896598285 344.27490023687415 692.3620929061335 340.12318362329256Q695.9499961524386 335.971467009711 699.3841321167591 331.8197503961294Q702.792640200749 327.6680337825478 705.7398464387852 324.25952569855804Q708.6870526768216 320.85101761456826 710.3528648983204 319.1852053930695L710.3528648983204 319.1852053930695Q713.8638845036331 315.4947906254414 718.6562981254835 310.5998654822681Q723.4487117473338 305.7049403390947 728.7024272151377 301.3738285631979Q733.9817705632722 297.04271678730106 739.3123696720684 293.9929990279418Q744.6685966611951 290.9432812685825 749.102219958415 290.9432812685825L749.102219958415 290.9432812685825Q753.8946335802653 290.9432812685825 757.1237465019399 294.172394190257Q760.3528594236145 297.40150711193155 762.1980668074285 300.9125267172444L762.1980668074285 300.9125267172444Q762.1980668074285 301.2713170418749 760.814161269568 301.93764193047446Q759.4302557317075 302.5783389387432 756.8418398183017 305.5255451767795L756.8418398183017 305.5255451767795Q754.2790517852266 308.857169619777 751.0499388635521 314.6490705745266Q747.8208259418775 320.46659940960694 744.7711081825182 327.20673193659434Q741.7213904231589 333.94686446358173 739.6967878770296 340.94327579387664Q737.6721853309003 347.96531500450226 737.6721853309003 353.6803323182595L737.6721853309003 353.6803323182595Q737.6721853309003 358.29335077779467 738.8510678261148 359.60037267466294Q740.0555782016601 360.8817666912005 742.2852037904354 360.8817666912005L742.2852037904354 360.8817666912005Q744.3098063365646 360.8817666912005 746.5138040450092 359.9591629992934Q748.7434296337846 359.03655930738637 750.0248236503221 359.03655930738637L750.0248236503221 359.03655930738637Q750.7680321799138 359.39534963201686 751.2293340258673 360.59986000756214Q751.6906358718209 361.8043703831074 751.6906358718209 362.7269740750145L751.6906358718209 362.7269740750145Q750.2042188126372 364.00836809155203 748.179616266508 365.3153899884203Q746.1550137203787 366.5967840049577 743.9253881316034 367.69878285918Q741.7213904231589 368.82640959373305 739.5942763557066 369.543990242994Q737.4671622882543 370.28719877258584 735.8269779470863 370.28719877258584L735.8269779470863 370.28719877258584Q730.4707509579595 370.28719877258584 727.0622428739696 368.72389807241007Q723.6281069096491 367.1605973722343 721.7060158848428 364.5721814588285Q719.7582969797057 361.98376554542267 719.015088450114 358.39586229911765Q718.297507800853 354.7823311724818 718.297507800853 350.7331260802232L718.297507800853 350.7331260802232Q718.297507800853 348.5291283717787 718.6562981254835 345.76131729605765Q719.015088450114 342.9935062203366 720.142715184667 339.2005799313855Q721.2447140388892 335.4076536424345 723.2693165850186 330.15393817463064Q725.2939191311478 324.90022270682675 728.4461484118301 317.51939317157064L728.4461484118301 317.51939317157064Q728.0617302068689 317.51939317157064 723.4487117473338 320.10780908497645Q718.8356932877987 322.69622499838226 713.4794662986719 328.0268241071784L713.4794662986719 328.0268241071784Q704.8172427468783 336.33025733434147 697.8977150575756 344.4542953991894Q690.978187368273 352.5783334640373 683.7767529953321 362.54757891269924L683.7767529953321 362.54757891269924Q679.7275479030735 368.2625962264566 676.6778301437142 372.2349176777228Q673.628112384355 376.20723912898916 671.4241146759105 377.4886331455267L671.4241146759105 377.4886331455267Q667.5543047459671 375.2846354370822 665.709097362153 371.3123139858159Q663.863889978339 367.33999253454954 662.9412862864319 363.085764399645L662.9412862864319 363.085764399645Q662.9412862864319 359.60037267466294 663.9407736193313 354.24414568553607Q664.9658888325613 348.8879186964092 666.7085846950523 342.32718133173717Q668.4769084378742 335.79207184739573 671.0396964709491 328.59063747445487Q673.628112384355 321.389203101514 676.7803416650372 314.18776872857313L676.7803416650372 314.18776872857313Q683.7767529953321 297.9653204792081 689.5942818304125 288.7392835601379Q695.4118106654928 279.5132466410678 696.8725998443456 278.77003811147597ZM766.8110852669636 355.9099579070348L766.8110852669636 355.9099579070348Q766.8110852669636 354.24414568553607 767.0929919506018 351.75824129345324Q767.37489863424 349.2467090210397 768.1181071638318 345.0949924074581Q768.8356878130928 340.94327579387664 770.0401981886382 335.04886331780403Q771.2447085641834 329.15445084173143 773.0899159479975 320.85101761456826L773.0899159479975 320.85101761456826Q773.448706272628 319.00581023075415 774.7557281694963 314.93097725816483Q776.0371221860338 310.88177216590634 778.164236253486 306.34563734736344Q780.2913503209384 301.83513040915136 783.3410680802976 297.5809022742468Q786.3651579593262 293.35230201967306 790.6193860942308 291.3276994735437L790.6193860942308 291.3276994735437Q793.7459874945823 292.0452801228048 798.922819321394 295.0949978821641Q804.0996511482055 298.14471564152336 807.7900659158336 303.50094263065023L807.7900659158336 303.50094263065023Q803.5358377809289 308.29335625250053 800.665515183885 313.08576987435083Q797.8208204671716 317.87818349620125 795.5143112374041 323.05501532301275Q793.2078020076365 328.2318471498244 791.2600831024995 333.7674693012665Q789.3379920776932 339.3030914527086 786.9289713266027 345.37689909109645L786.9289713266027 345.37689909109645Q784.9043687804734 350.55373091790807 783.2385565589746 355.9868415480271Q781.5727443374758 361.44558005847693 781.3933491751606 365.49478515073554L781.3933491751606 365.49478515073554Q781.3933491751606 368.82640959373305 781.2908376538376 370.2103151315936Q781.2139540128453 371.5942206694541 780.2913503209384 371.5942206694541L780.2913503209384 371.5942206694541Q779.5481417913466 371.5942206694541 777.344144082902 370.67161697754705Q775.1145184941267 369.7490132856401 772.8080092643592 367.801294380503Q770.5015000345917 365.85357547536603 768.6562926507776 362.9063692373297Q766.8110852669636 359.9591629992934 766.8110852669636 355.9099579070348ZM802.0494207217455 275.82283187343967L802.0494207217455 275.82283187343967Q802.0494207217455 274.7208330192175 802.613234089022 272.49120743044216L802.613234089022 272.49120743044216Q801.690630397115 271.5686037385351 801.0499333888462 269.7233963547211Q800.4092363805773 267.8781889709071 800.4092363805773 266.4173997920543L800.4092363805773 266.4173997920543Q800.4092363805773 264.75158757055556 800.8705382265309 261.88126497351146Q801.3318400724845 259.0365702567982 802.0494207217455 255.7049458138006Q802.7926292513372 252.37332137080304 803.8946281055595 248.785418124498Q805.0222548401125 245.19751487819292 806.1242536943348 242.22468075982587L806.1242536943348 242.22468075982587Q808.3282514027793 242.22468075982587 811.5573643244538 243.42919113537116Q814.7864772461285 244.6337015109164 818.118101689126 246.58142041605348Q821.4240982517928 248.50351144085974 824.1919093275138 250.81002067062727Q826.9597204032349 253.11652990039482 828.4461374624184 255.1411324465241L828.4461374624184 255.1411324465241Q826.4215349162891 257.1913628729841 823.0899104732916 260.7792661192892Q819.7839139106247 264.36716936559424 816.6316846299424 268.3394908168606Q813.5050832295909 272.3118122681269 810.9166673161851 275.82283187343967Q808.3282514027793 279.33385147875254 807.5850428731875 280.7946406576053L807.5850428731875 280.7946406576053Q805.381045164743 280.43585033297484 803.7152329432442 278.87254963279895Q802.0494207217455 277.28362105229246 802.0494207217455 275.82283187343967Z " fill="#edc951" transform="matrix(1.0558132365367057,0,0,1.0558132365367057,0.31559339149541366,-24.431394333163354)"/></g></svg>